# xmcd CD database file
#
# Track frame offsets:
#	150
#	21714
#	44954
#	56706
#	81533
#	105085
#	119737
#	140564
#	166591
#	213168
#	238520
#	260347
#	278724
#
# Disc length: 4337 seconds
#
# Revision: 0
# Processed by: cddbd v1.5.2PL0 Copyright (c) Steve Scherf et al.
# Submitted via: CDex 1.51
#
DISCID=c010ef0d
DTITLE=Stevie Ray Vaughan And Double Trouble - All You Can Get About Him - Disc 2
DYEAR=1900
DGENRE=Blues
TTITLE0=Shuffle
TTITLE1=You'll be mine
TTITLE2=The house is rockin'
TTITLE3=Tightrope
TTITLE4=Look out little sister
TTITLE5=Let me love you babe
TTITLE6=Willie the winp
TTITLE7=Leave my girl alone
TTITLE8=Riviera paradise
TTITLE9=Wall of denial
TTITLE10=Superstition
TTITLE11=Crossfire
TTITLE12=Flood down in Texas
EXTD=
EXTT0=
EXTT1=
EXTT2=
EXTT3=
EXTT4=
EXTT5=
EXTT6=
EXTT7=
EXTT8=
EXTT9=
EXTT10=
EXTT11=
EXTT12=
PLAYORDER=
